<svg xmlns="http://www.w3.org/2000/svg" xmlns:xlink="http://www.w3.org/1999/xlink" zoomAndPan="magnify" preserveAspectRatio="xMidYMid meet" version="1.0" viewBox="92.73 92.72 189.75 189.76"><defs><clipPath id="0a3060b6fe"><path d="M 92.730469 92.730469 L 282.480469 92.730469 L 282.480469 282.480469 L 92.730469 282.480469 Z M 92.730469 92.730469 " clip-rule="nonzero"/></clipPath></defs><path fill="#ffffff" d="M 187.371094 183.03125 L 233.253906 154.421875 C 232.757812 154.339844 232.25 154.289062 231.730469 154.289062 L 143.011719 154.289062 C 142.496094 154.289062 141.988281 154.34375 141.492188 154.421875 Z M 187.371094 183.03125 " fill-opacity="1" fill-rule="nonzero"/><path fill="#ffffff" d="M 190.257812 194.09375 C 190.199219 194.128906 190.132812 194.15625 190.066406 194.191406 C 190 194.226562 189.929688 194.265625 189.863281 194.296875 C 189.503906 194.484375 189.128906 194.632812 188.75 194.730469 C 188.710938 194.742188 188.671875 194.75 188.636719 194.757812 C 188.21875 194.855469 187.796875 194.917969 187.375 194.917969 C 187.375 194.917969 187.375 194.917969 187.371094 194.917969 C 187.371094 194.917969 187.367188 194.917969 187.367188 194.917969 C 186.945312 194.917969 186.523438 194.855469 186.109375 194.757812 C 186.070312 194.75 186.03125 194.742188 185.992188 194.730469 C 185.613281 194.632812 185.242188 194.484375 184.882812 194.296875 C 184.8125 194.265625 184.746094 194.226562 184.675781 194.191406 C 184.613281 194.15625 184.546875 194.128906 184.484375 194.09375 L 133.5 162.300781 C 133.410156 162.839844 133.351562 163.386719 133.351562 163.953125 L 133.351562 214.96875 C 133.351562 220.304688 137.675781 224.632812 143.011719 224.632812 L 231.726562 224.632812 C 237.066406 224.632812 241.390625 220.304688 241.390625 214.96875 L 241.390625 163.953125 C 241.390625 163.386719 241.332031 162.839844 241.238281 162.300781 Z M 190.257812 194.09375 " fill-opacity="1" fill-rule="nonzero"/><g clip-path="url(#0a3060b6fe)"><path fill="#ffffff" d="M 187.628906 282.425781 C 135.328125 282.425781 92.777344 239.875 92.777344 187.574219 C 92.777344 135.273438 135.328125 92.722656 187.628906 92.722656 C 239.929688 92.722656 282.480469 135.273438 282.480469 187.574219 C 282.480469 239.875 239.929688 282.425781 187.628906 282.425781 Z M 187.628906 102.078125 C 140.484375 102.078125 102.132812 140.433594 102.132812 187.574219 C 102.132812 234.71875 140.484375 273.070312 187.628906 273.070312 C 234.769531 273.070312 273.125 234.71875 273.125 187.574219 C 273.125 140.433594 234.769531 102.078125 187.628906 102.078125 Z M 187.628906 102.078125 " fill-opacity="1" fill-rule="nonzero"/></g></svg>