<svg xmlns="http://www.w3.org/2000/svg" xmlns:xlink="http://www.w3.org/1999/xlink" zoomAndPan="magnify" preserveAspectRatio="xMidYMid meet" version="1.0" viewBox="93.26 93.26 188.25 188.25"><defs><clipPath id="29bcc193a9"><path d="M 93.261719 93.261719 L 281.511719 93.261719 L 281.511719 281.511719 L 93.261719 281.511719 Z M 93.261719 93.261719 " clip-rule="nonzero"/></clipPath></defs><path fill="#ffffff" d="M 211.96875 133.308594 L 162.882812 133.308594 C 146.628906 133.308594 133.386719 146.550781 133.386719 162.804688 L 133.386719 211.890625 C 133.386719 228.144531 146.628906 241.386719 162.882812 241.386719 L 211.96875 241.386719 C 228.226562 241.386719 241.46875 228.144531 241.46875 211.890625 L 241.46875 162.882812 C 241.46875 146.550781 228.226562 133.308594 211.96875 133.308594 Z M 232.191406 211.96875 C 232.191406 223.148438 223.148438 232.191406 211.96875 232.191406 L 162.882812 232.191406 C 151.703125 232.191406 142.585938 223.148438 142.585938 211.96875 L 142.585938 162.882812 C 142.585938 151.703125 151.703125 142.585938 162.882812 142.585938 L 211.96875 142.585938 C 223.148438 142.585938 232.191406 151.625 232.191406 162.882812 Z M 232.191406 211.96875 " fill-opacity="1" fill-rule="nonzero"/><path fill="#ffffff" d="M 223.546875 157.808594 C 223.546875 161.457031 220.613281 164.46875 216.886719 164.46875 C 213.238281 164.46875 210.226562 161.535156 210.226562 157.808594 C 210.226562 154.160156 213.160156 151.148438 216.886719 151.148438 C 220.613281 151.226562 223.546875 154.160156 223.546875 157.808594 Z M 223.546875 157.808594 " fill-opacity="1" fill-rule="nonzero"/><path fill="#ffffff" d="M 187.386719 159.871094 C 172.242188 159.871094 159.871094 172.242188 159.871094 187.386719 C 159.871094 202.53125 172.242188 214.902344 187.386719 214.902344 C 202.53125 214.902344 214.902344 202.53125 214.902344 187.386719 C 214.902344 172.242188 202.613281 159.871094 187.386719 159.871094 Z M 187.386719 205.625 C 177.316406 205.625 169.148438 197.457031 169.148438 187.386719 C 169.148438 177.316406 177.316406 169.148438 187.386719 169.148438 C 197.457031 169.148438 205.625 177.316406 205.625 187.386719 C 205.625 197.457031 197.457031 205.625 187.386719 205.625 Z M 187.386719 205.625 " fill-opacity="1" fill-rule="nonzero"/><g clip-path="url(#29bcc193a9)"><path fill="#ffffff" d="M 187.386719 281.511719 C 135.527344 281.511719 93.261719 239.328125 93.261719 187.386719 C 93.261719 135.527344 135.527344 93.261719 187.386719 93.261719 C 239.328125 93.261719 281.511719 135.527344 281.511719 187.386719 C 281.511719 239.328125 239.328125 281.511719 187.386719 281.511719 Z M 187.386719 98.417969 C 138.300781 98.417969 98.417969 138.300781 98.417969 187.386719 C 98.417969 236.472656 138.300781 276.359375 187.386719 276.359375 C 236.472656 276.359375 276.359375 236.472656 276.359375 187.386719 C 276.359375 138.300781 236.472656 98.417969 187.386719 98.417969 Z M 187.386719 98.417969 " fill-opacity="1" fill-rule="nonzero"/></g></svg>