<svg xmlns="http://www.w3.org/2000/svg" xmlns:xlink="http://www.w3.org/1999/xlink" zoomAndPan="magnify" preserveAspectRatio="xMidYMid meet" version="1.0" viewBox="85.32 85.32 204 204"><defs><clipPath id="85e6ad1f36"><path d="M 85.324219 85.324219 L 289.324219 85.324219 L 289.324219 289.324219 L 85.324219 289.324219 Z M 85.324219 85.324219 " clip-rule="nonzero"/></clipPath></defs><path fill="#ffffff" d="M 232.179688 164.894531 C 232.179688 164.894531 233.726562 197.464844 208.890625 217.570312 C 171.855469 247.648438 131.898438 223.242188 131.898438 223.242188 C 131.898438 223.242188 141.609375 223.414062 150.203125 221.09375 C 158.792969 218.773438 164.894531 213.273438 164.894531 213.273438 C 164.894531 213.273438 155.527344 211.296875 150.714844 207.773438 C 145.820312 204.25 144.015625 197.464844 144.015625 197.464844 C 144.015625 197.464844 147.195312 197.722656 149.257812 197.722656 C 151.316406 197.636719 153.808594 196.691406 153.808594 196.691406 C 153.808594 196.691406 147.109375 195.917969 140.835938 188.871094 C 135.9375 183.371094 136.28125 174.175781 136.28125 174.175781 C 136.28125 174.175781 139.203125 175.894531 140.835938 176.324219 C 142.382812 176.753906 145.390625 176.753906 145.390625 176.753906 C 145.390625 176.753906 139.546875 173.230469 136.882812 164.292969 C 134.304688 155.269531 139.289062 146.164062 139.289062 146.164062 C 139.289062 146.164062 147.882812 156.644531 160.855469 163.433594 C 173.832031 170.222656 186.035156 169.964844 186.035156 169.964844 C 186.035156 169.964844 184.230469 164.550781 187.324219 156.644531 C 190.417969 148.65625 197.464844 142.984375 208.117188 142.125 C 218.773438 141.265625 225.5625 149.34375 225.5625 149.34375 C 225.5625 149.34375 228.828125 148.742188 232.609375 147.367188 C 236.390625 145.992188 240.085938 144.273438 240.085938 144.273438 C 240.085938 144.273438 238.796875 148.3125 236.21875 151.488281 C 233.640625 154.667969 230.71875 156.558594 230.71875 156.558594 C 230.71875 156.558594 234.070312 156.300781 237.421875 155.355469 C 240.773438 154.410156 242.664062 153.464844 242.664062 153.464844 C 238.96875 159.996094 232.179688 164.894531 232.179688 164.894531 Z M 232.179688 164.894531 " fill-opacity="1" fill-rule="nonzero"/><g clip-path="url(#85e6ad1f36)"><path fill="#ffffff" d="M 187.324219 289.324219 C 131.125 289.324219 85.324219 243.609375 85.324219 187.324219 C 85.324219 131.039062 131.125 85.324219 187.324219 85.324219 C 243.523438 85.324219 289.324219 131.125 289.324219 187.324219 C 289.324219 243.523438 243.609375 289.324219 187.324219 289.324219 Z M 187.324219 90.910156 C 134.132812 90.910156 90.910156 134.132812 90.910156 187.324219 C 90.910156 240.515625 134.132812 283.738281 187.324219 283.738281 C 240.515625 283.738281 283.738281 240.515625 283.738281 187.324219 C 283.738281 134.132812 240.515625 90.910156 187.324219 90.910156 Z M 187.324219 90.910156 " fill-opacity="1" fill-rule="nonzero"/></g></svg>