<svg xmlns="http://www.w3.org/2000/svg" xmlns:xlink="http://www.w3.org/1999/xlink" zoomAndPan="magnify" preserveAspectRatio="xMidYMid meet" version="1.0" viewBox="104.4 104.4 166.5 166.5"><defs><clipPath id="887fadc541"><path d="M 104.402344 104.402344 L 270.902344 104.402344 L 270.902344 270.902344 L 104.402344 270.902344 Z M 104.402344 104.402344 " clip-rule="nonzero"/></clipPath></defs><path fill="#ffffff" d="M 192.210938 136.941406 C 166.75 136.941406 146.0625 157.632812 146.0625 183.09375 C 146.0625 191.4375 148.304688 199.503906 152.511719 206.585938 L 146.269531 229.101562 L 169.90625 223.488281 C 176.710938 227.277344 184.355469 229.242188 192.210938 229.242188 C 217.667969 229.242188 238.359375 208.550781 238.359375 183.09375 C 238.359375 157.632812 217.667969 136.941406 192.210938 136.941406 Z M 192.210938 221.667969 C 185.195312 221.667969 178.394531 219.773438 172.429688 216.265625 L 171.097656 215.496094 L 157 218.789062 L 160.71875 205.394531 L 159.808594 203.992188 C 155.808594 197.820312 153.707031 190.527344 153.707031 183.09375 C 153.707031 161.839844 171.027344 144.519531 192.28125 144.519531 C 213.53125 144.519531 230.855469 161.839844 230.855469 183.09375 C 230.785156 204.414062 213.460938 221.667969 192.210938 221.667969 Z M 192.210938 221.667969 " fill-opacity="1" fill-rule="nonzero"/><path fill="#ffffff" d="M 214.160156 199.714844 C 213.8125 201.609375 209.742188 203.992188 207.148438 204.695312 C 200.695312 206.375 191.648438 201.46875 182.671875 193.683594 C 173.625 185.828125 167.523438 177.550781 168.363281 170.957031 C 168.644531 168.363281 170.539062 163.945312 172.363281 163.382812 C 174.113281 162.824219 175.378906 163.3125 177.199219 163.945312 C 178.113281 164.925781 179.234375 166.191406 180.496094 167.59375 C 182.179688 169.484375 183.300781 171.238281 184.074219 172.429688 C 184.636719 173.414062 184.425781 174.675781 183.582031 175.449219 L 180.496094 178.183594 C 179.9375 178.671875 179.726562 179.515625 180.074219 180.144531 C 181.058594 182.179688 183.300781 186.386719 186.597656 189.265625 C 189.894531 192.140625 194.382812 193.753906 196.488281 194.453125 C 197.1875 194.664062 197.960938 194.382812 198.382812 193.753906 L 200.695312 190.316406 C 201.328125 189.402344 202.589844 188.984375 203.640625 189.402344 C 204.902344 189.964844 206.796875 190.808594 208.902344 192.210938 C 210.515625 193.261719 211.847656 194.242188 212.96875 195.015625 C 213.8125 196.699219 214.511719 197.890625 214.160156 199.714844 Z M 214.160156 199.714844 " fill-opacity="1" fill-rule="nonzero"/><g clip-path="url(#887fadc541)"><path fill="#ffffff" d="M 187.652344 270.902344 C 141.78125 270.902344 104.402344 233.589844 104.402344 187.652344 C 104.402344 141.78125 141.78125 104.402344 187.652344 104.402344 C 233.519531 104.402344 270.902344 141.78125 270.902344 187.652344 C 270.902344 233.589844 233.589844 270.902344 187.652344 270.902344 Z M 187.652344 108.960938 C 144.238281 108.960938 108.960938 144.238281 108.960938 187.652344 C 108.960938 231.0625 144.238281 266.34375 187.652344 266.34375 C 231.0625 266.34375 266.34375 231.0625 266.34375 187.652344 C 266.34375 144.238281 231.0625 108.960938 187.652344 108.960938 Z M 187.652344 108.960938 " fill-opacity="1" fill-rule="nonzero"/></g></svg>