<svg xmlns="http://www.w3.org/2000/svg" xmlns:xlink="http://www.w3.org/1999/xlink" width="500" zoomAndPan="magnify" viewBox="0 0 375 374.999991" height="500" preserveAspectRatio="xMidYMid meet" version="1.0"><defs><g/></defs><g fill="#000000" fill-opacity="1"><g transform="translate(104.437497, 201.881588)"><g><path d="M 16.984375 0.828125 C 19.851562 0.828125 23.21875 -0.109375 26.140625 -4.851562 C 26.527344 -5.460938 27.132812 -5.84375 27.132812 -5.074219 L 27.132812 -4.523438 C 27.132812 -1.710938 27.792969 0 30.164062 0 L 43.675781 0 C 42.1875 -1.488281 41.746094 -3.363281 41.746094 -6.507812 L 41.746094 -53.824219 C 41.746094 -54.925781 41.691406 -55.976562 40.09375 -55.976562 C 36.839844 -55.976562 26.746094 -50.902344 24.539062 -49.964844 C 24.429688 -49.910156 23.933594 -49.796875 23.933594 -49.246094 C 23.933594 -48.585938 24.597656 -48.53125 24.761719 -48.476562 C 27.351562 -47.59375 27.132812 -44.890625 27.132812 -44.226562 L 27.132812 -36.507812 C 27.132812 -35.128906 26.472656 -35.074219 26.25 -35.074219 C 25.148438 -35.074219 23.105469 -39.429688 16.984375 -39.429688 C 6.121094 -39.429688 1.378906 -28.457031 1.378906 -18.53125 C 1.378906 -7.832031 7.058594 0.828125 16.984375 0.828125 Z M 23.160156 -33.640625 C 26.582031 -33.640625 27.132812 -28.347656 27.132812 -25.535156 L 27.132812 -14.78125 C 27.132812 -11.746094 26.691406 -6.066406 22.28125 -6.066406 C 16.160156 -6.066406 15.9375 -13.675781 15.9375 -20.074219 C 15.9375 -26.085938 17.039062 -33.640625 23.160156 -33.640625 Z M 23.160156 -33.640625 "/></g></g></g><g fill="#000000" fill-opacity="1"><g transform="translate(148.381479, 201.881588)"><g><path d="M 1.378906 -8.601562 C 1.378906 -3.308594 5.84375 0.828125 11.195312 0.828125 C 19.082031 0.828125 20.679688 -4.300781 22.996094 -4.300781 C 23.824219 -4.300781 24.265625 -3.308594 24.429688 -2.371094 C 24.707031 -0.882812 25.644531 0 27.296875 0 L 40.808594 0 C 39.320312 -1.488281 38.878906 -3.363281 38.878906 -6.507812 L 38.878906 -22.886719 C 38.878906 -30.773438 32.921875 -39.429688 20.238281 -39.429688 C 14.394531 -39.429688 8.601562 -38.601562 4.851562 -35.019531 C 3.417969 -33.695312 3.75 -31.710938 3.75 -29.835938 L 3.75 -26.800781 C 3.75 -25.863281 4.578125 -25.035156 5.460938 -25.035156 C 8.878906 -25.035156 12.464844 -36.285156 19.410156 -36.398438 C 23.492188 -36.453125 24.210938 -33.253906 24.210938 -30.828125 C 24.210938 -29.835938 23.824219 -28.730469 22.222656 -28.402344 C 11.855469 -26.25 1.378906 -20.347656 1.378906 -8.601562 Z M 22.222656 -24.816406 C 23.714844 -24.816406 24.210938 -23.878906 24.210938 -21.398438 C 24.210938 -17.976562 24.265625 -15.9375 24.265625 -12.464844 C 24.265625 -8.878906 22.777344 -6.175781 19.796875 -6.175781 C 15.71875 -6.175781 14.558594 -9.925781 14.558594 -13.785156 C 14.558594 -20.570312 18.640625 -24.816406 22.222656 -24.816406 Z M 22.222656 -24.816406 "/></g></g></g><g fill="#000000" fill-opacity="1"><g transform="translate(189.45835, 201.881588)"><g><path d="M 19.027344 0 C 17.535156 -1.488281 17.097656 -3.363281 17.097656 -6.507812 L 17.097656 -21.507812 C 17.097656 -27.628906 19.410156 -29.339844 21.949219 -29.339844 C 24.375 -29.339844 25.09375 -26.96875 25.09375 -24.429688 L 25.09375 -6.507812 C 25.09375 -3.363281 24.652344 -1.488281 23.160156 0 L 41.636719 0 C 40.148438 -1.488281 39.707031 -3.363281 39.707031 -6.507812 L 39.707031 -15.9375 L 39.652344 -26.472656 C 39.652344 -32.207031 38.273438 -39.429688 30.222656 -39.429688 C 20.902344 -39.429688 19.742188 -31.765625 17.480469 -31.765625 C 17.261719 -31.765625 17.097656 -31.765625 17.097656 -33.089844 L 17.097656 -34.027344 C 17.097656 -36.839844 16.433594 -38.601562 14.0625 -38.601562 L 0.550781 -38.601562 C 2.039062 -37.113281 2.480469 -35.238281 2.480469 -32.097656 L 2.480469 -6.507812 C 2.480469 -3.363281 2.039062 -1.488281 0.550781 0 Z M 19.027344 0 "/></g></g></g><g fill="#000000" fill-opacity="1"><g transform="translate(231.362274, 201.881588)"><g><path d="M 0.277344 -48.476562 C 2.921875 -47.757812 2.648438 -44.890625 2.648438 -44.226562 L 2.648438 -4.523438 C 2.648438 -1.710938 3.308594 0 5.679688 0 L 19.191406 0 C 17.703125 -1.488281 17.261719 -3.363281 17.261719 -6.507812 L 17.261719 -53.824219 C 17.261719 -54.925781 17.207031 -55.976562 15.605469 -55.976562 C 12.351562 -55.976562 2.207031 -51.011719 0.0546875 -49.964844 C -0.0546875 -49.910156 -0.550781 -49.796875 -0.550781 -49.246094 C -0.550781 -48.585938 0.109375 -48.53125 0.277344 -48.476562 Z M 0.277344 -48.476562 "/></g></g></g><g fill="#000000" fill-opacity="1"><g transform="translate(251.101225, 201.881588)"><g><path d="M 0 -32.703125 C 0 -32.039062 0.660156 -31.984375 0.828125 -31.929688 C 2.921875 -31.214844 2.648438 -28.347656 2.648438 -27.683594 L 2.648438 -6.507812 C 2.648438 -3.363281 2.207031 -1.488281 0.71875 0 L 19.191406 0 C 17.703125 -1.488281 17.261719 -3.363281 17.261719 -6.507812 L 17.261719 -37.28125 C 17.261719 -38.382812 17.207031 -39.429688 15.605469 -39.429688 C 12.351562 -39.429688 2.757812 -34.46875 0.605469 -33.417969 C 0.496094 -33.363281 0 -33.253906 0 -32.703125 Z M 9.816406 -58.402344 C 4.964844 -58.402344 1.765625 -55.203125 1.765625 -50.351562 C 1.765625 -45.496094 4.964844 -42.296875 9.816406 -42.296875 C 14.667969 -42.296875 17.867188 -45.496094 17.867188 -50.351562 C 17.867188 -55.203125 14.667969 -58.402344 9.816406 -58.402344 Z M 9.816406 -58.402344 "/></g></g></g><g fill="#000000" fill-opacity="1"><g transform="translate(106.266312, 220.36645)"><g><path d="M 11.375 0 L 11.34375 -6.015625 L 8.421875 -1.125 L 7 -1.125 L 4.09375 -5.84375 L 4.09375 0 L 1.140625 0 L 1.140625 -11.34375 L 3.78125 -11.34375 L 7.765625 -4.796875 L 11.65625 -11.34375 L 14.296875 -11.34375 L 14.328125 0 Z M 11.375 0 "/></g></g></g><g fill="#000000" fill-opacity="1"><g transform="translate(121.068681, 220.36645)"><g><path d="M 8.734375 -2.203125 L 3.9375 -2.203125 L 3.046875 0 L -0.234375 0 L 4.78125 -11.34375 L 7.9375 -11.34375 L 12.96875 0 L 9.625 0 Z M 7.796875 -4.5625 L 6.328125 -8.203125 L 4.875 -4.5625 Z M 7.796875 -4.5625 "/></g></g></g><g fill="#000000" fill-opacity="1"><g transform="translate(133.15023, 220.36645)"><g><path d="M 6.09375 -3.015625 L 4.34375 -3.015625 L 4.34375 0 L 1.140625 0 L 1.140625 -11.34375 L 6.3125 -11.34375 C 7.34375 -11.34375 8.234375 -11.171875 8.984375 -10.828125 C 9.742188 -10.492188 10.328125 -10.007812 10.734375 -9.375 C 11.148438 -8.738281 11.359375 -7.992188 11.359375 -7.140625 C 11.359375 -6.328125 11.164062 -5.613281 10.78125 -5 C 10.394531 -4.382812 9.847656 -3.90625 9.140625 -3.5625 L 11.578125 0 L 8.15625 0 Z M 8.125 -7.140625 C 8.125 -7.671875 7.953125 -8.082031 7.609375 -8.375 C 7.273438 -8.664062 6.78125 -8.8125 6.125 -8.8125 L 4.34375 -8.8125 L 4.34375 -5.5 L 6.125 -5.5 C 6.78125 -5.5 7.273438 -5.640625 7.609375 -5.921875 C 7.953125 -6.210938 8.125 -6.617188 8.125 -7.140625 Z M 8.125 -7.140625 "/></g></g></g><g fill="#000000" fill-opacity="1"><g transform="translate(144.486789, 220.36645)"><g><path d="M 5.515625 -4.109375 L 4.3125 -2.828125 L 4.3125 0 L 1.140625 0 L 1.140625 -11.34375 L 4.3125 -11.34375 L 4.3125 -6.625 L 8.703125 -11.34375 L 12.234375 -11.34375 L 7.59375 -6.3125 L 12.46875 0 L 8.75 0 Z M 5.515625 -4.109375 "/></g></g></g><g fill="#000000" fill-opacity="1"><g transform="translate(156.017695, 220.36645)"><g><path d="M 10.234375 -2.484375 L 10.234375 0 L 1.140625 0 L 1.140625 -11.34375 L 10.03125 -11.34375 L 10.03125 -8.859375 L 4.3125 -8.859375 L 4.3125 -6.953125 L 9.34375 -6.953125 L 9.34375 -4.546875 L 4.3125 -4.546875 L 4.3125 -2.484375 Z M 10.234375 -2.484375 "/></g></g></g><g fill="#000000" fill-opacity="1"><g transform="translate(166.252981, 220.36645)"><g><path d="M 3.546875 -8.796875 L 0.0625 -8.796875 L 0.0625 -11.34375 L 10.21875 -11.34375 L 10.21875 -8.796875 L 6.75 -8.796875 L 6.75 0 L 3.546875 0 Z M 3.546875 -8.796875 "/></g></g></g><g fill="#000000" fill-opacity="1"><g transform="translate(175.889032, 220.36645)"><g><path d="M 1.140625 -11.34375 L 4.34375 -11.34375 L 4.34375 0 L 1.140625 0 Z M 1.140625 -11.34375 "/></g></g></g><g fill="#000000" fill-opacity="1"><g transform="translate(180.731256, 220.36645)"><g><path d="M 11.921875 -11.34375 L 11.921875 0 L 9.28125 0 L 4.28125 -6.046875 L 4.28125 0 L 1.140625 0 L 1.140625 -11.34375 L 3.78125 -11.34375 L 8.78125 -5.296875 L 8.78125 -11.34375 Z M 11.921875 -11.34375 "/></g></g></g><g fill="#000000" fill-opacity="1"><g transform="translate(193.136719, 220.36645)"><g><path d="M 8.734375 -5.921875 L 11.5625 -5.921875 L 11.5625 -1.21875 C 10.914062 -0.75 10.171875 -0.390625 9.328125 -0.140625 C 8.484375 0.109375 7.644531 0.234375 6.8125 0.234375 C 5.613281 0.234375 4.539062 -0.015625 3.59375 -0.515625 C 2.644531 -1.023438 1.898438 -1.726562 1.359375 -2.625 C 0.816406 -3.519531 0.546875 -4.535156 0.546875 -5.671875 C 0.546875 -6.804688 0.816406 -7.820312 1.359375 -8.71875 C 1.898438 -9.613281 2.648438 -10.3125 3.609375 -10.8125 C 4.578125 -11.3125 5.664062 -11.5625 6.875 -11.5625 C 7.925781 -11.5625 8.875 -11.382812 9.71875 -11.03125 C 10.5625 -10.675781 11.265625 -10.164062 11.828125 -9.5 L 9.78125 -7.640625 C 9.019531 -8.484375 8.101562 -8.90625 7.03125 -8.90625 C 6.0625 -8.90625 5.28125 -8.609375 4.6875 -8.015625 C 4.09375 -7.429688 3.796875 -6.648438 3.796875 -5.671875 C 3.796875 -5.046875 3.929688 -4.484375 4.203125 -3.984375 C 4.472656 -3.492188 4.847656 -3.113281 5.328125 -2.84375 C 5.816406 -2.570312 6.375 -2.4375 7 -2.4375 C 7.613281 -2.4375 8.191406 -2.554688 8.734375 -2.796875 Z M 8.734375 -5.921875 "/></g></g></g><g fill="#000000" fill-opacity="1"><g transform="translate(204.959134, 220.36645)"><g/></g></g><g fill="#000000" fill-opacity="1"><g transform="translate(209.023984, 220.36645)"><g><path d="M 8.734375 -2.203125 L 3.9375 -2.203125 L 3.046875 0 L -0.234375 0 L 4.78125 -11.34375 L 7.9375 -11.34375 L 12.96875 0 L 9.625 0 Z M 7.796875 -4.5625 L 6.328125 -8.203125 L 4.875 -4.5625 Z M 7.796875 -4.5625 "/></g></g></g><g fill="#000000" fill-opacity="1"><g transform="translate(221.105534, 220.36645)"><g><path d="M 8.734375 -5.921875 L 11.5625 -5.921875 L 11.5625 -1.21875 C 10.914062 -0.75 10.171875 -0.390625 9.328125 -0.140625 C 8.484375 0.109375 7.644531 0.234375 6.8125 0.234375 C 5.613281 0.234375 4.539062 -0.015625 3.59375 -0.515625 C 2.644531 -1.023438 1.898438 -1.726562 1.359375 -2.625 C 0.816406 -3.519531 0.546875 -4.535156 0.546875 -5.671875 C 0.546875 -6.804688 0.816406 -7.820312 1.359375 -8.71875 C 1.898438 -9.613281 2.648438 -10.3125 3.609375 -10.8125 C 4.578125 -11.3125 5.664062 -11.5625 6.875 -11.5625 C 7.925781 -11.5625 8.875 -11.382812 9.71875 -11.03125 C 10.5625 -10.675781 11.265625 -10.164062 11.828125 -9.5 L 9.78125 -7.640625 C 9.019531 -8.484375 8.101562 -8.90625 7.03125 -8.90625 C 6.0625 -8.90625 5.28125 -8.609375 4.6875 -8.015625 C 4.09375 -7.429688 3.796875 -6.648438 3.796875 -5.671875 C 3.796875 -5.046875 3.929688 -4.484375 4.203125 -3.984375 C 4.472656 -3.492188 4.847656 -3.113281 5.328125 -2.84375 C 5.816406 -2.570312 6.375 -2.4375 7 -2.4375 C 7.613281 -2.4375 8.191406 -2.554688 8.734375 -2.796875 Z M 8.734375 -5.921875 "/></g></g></g><g fill="#000000" fill-opacity="1"><g transform="translate(232.927955, 220.36645)"><g><path d="M 10.234375 -2.484375 L 10.234375 0 L 1.140625 0 L 1.140625 -11.34375 L 10.03125 -11.34375 L 10.03125 -8.859375 L 4.3125 -8.859375 L 4.3125 -6.953125 L 9.34375 -6.953125 L 9.34375 -4.546875 L 4.3125 -4.546875 L 4.3125 -2.484375 Z M 10.234375 -2.484375 "/></g></g></g><g fill="#000000" fill-opacity="1"><g transform="translate(243.163241, 220.36645)"><g><path d="M 11.921875 -11.34375 L 11.921875 0 L 9.28125 0 L 4.28125 -6.046875 L 4.28125 0 L 1.140625 0 L 1.140625 -11.34375 L 3.78125 -11.34375 L 8.78125 -5.296875 L 8.78125 -11.34375 Z M 11.921875 -11.34375 "/></g></g></g><g fill="#000000" fill-opacity="1"><g transform="translate(255.568705, 220.36645)"><g><path d="M 6.796875 0.234375 C 5.597656 0.234375 4.523438 -0.015625 3.578125 -0.515625 C 2.640625 -1.023438 1.898438 -1.726562 1.359375 -2.625 C 0.816406 -3.519531 0.546875 -4.535156 0.546875 -5.671875 C 0.546875 -6.804688 0.816406 -7.820312 1.359375 -8.71875 C 1.898438 -9.613281 2.640625 -10.3125 3.578125 -10.8125 C 4.523438 -11.3125 5.597656 -11.5625 6.796875 -11.5625 C 7.828125 -11.5625 8.757812 -11.378906 9.59375 -11.015625 C 10.425781 -10.648438 11.117188 -10.125 11.671875 -9.4375 L 9.625 -7.578125 C 8.882812 -8.460938 7.992188 -8.90625 6.953125 -8.90625 C 6.335938 -8.90625 5.785156 -8.769531 5.296875 -8.5 C 4.816406 -8.238281 4.445312 -7.859375 4.1875 -7.359375 C 3.925781 -6.867188 3.796875 -6.304688 3.796875 -5.671875 C 3.796875 -5.035156 3.925781 -4.46875 4.1875 -3.96875 C 4.445312 -3.476562 4.816406 -3.097656 5.296875 -2.828125 C 5.785156 -2.566406 6.335938 -2.4375 6.953125 -2.4375 C 7.992188 -2.4375 8.882812 -2.878906 9.625 -3.765625 L 11.671875 -1.90625 C 11.117188 -1.21875 10.425781 -0.6875 9.59375 -0.3125 C 8.757812 0.0507812 7.828125 0.234375 6.796875 0.234375 Z M 6.796875 0.234375 "/></g></g></g><g fill="#000000" fill-opacity="1"><g transform="translate(266.87288, 220.36645)"><g><path d="M 7.203125 -4.0625 L 7.203125 0 L 4 0 L 4 -4.109375 L -0.328125 -11.34375 L 3.0625 -11.34375 L 5.75 -6.84375 L 8.4375 -11.34375 L 11.546875 -11.34375 Z M 7.203125 -4.0625 "/></g></g></g></svg>