<svg xmlns="http://www.w3.org/2000/svg" xmlns:xlink="http://www.w3.org/1999/xlink" width="500" zoomAndPan="magnify" viewBox="0 0 375 374.999991" height="500" preserveAspectRatio="xMidYMid meet" version="1.0"><defs><g/></defs><g fill="#ffffff" fill-opacity="1"><g transform="translate(104.41351, 200.596369)"><g><path d="M 16.988281 0.828125 C 19.855469 0.828125 23.21875 -0.109375 26.140625 -4.851562 C 26.527344 -5.460938 27.132812 -5.847656 27.132812 -5.074219 L 27.132812 -4.523438 C 27.132812 -1.710938 27.796875 0 30.167969 0 L 43.679688 0 C 42.191406 -1.488281 41.75 -3.363281 41.75 -6.507812 L 41.75 -53.828125 C 41.75 -54.929688 41.695312 -55.980469 40.09375 -55.980469 C 36.839844 -55.980469 26.75 -50.90625 24.542969 -49.96875 C 24.433594 -49.914062 23.9375 -49.800781 23.9375 -49.25 C 23.9375 -48.589844 24.597656 -48.535156 24.761719 -48.476562 C 27.355469 -47.597656 27.132812 -44.894531 27.132812 -44.230469 L 27.132812 -36.511719 C 27.132812 -35.132812 26.472656 -35.078125 26.253906 -35.078125 C 25.148438 -35.078125 23.109375 -39.433594 16.988281 -39.433594 C 6.121094 -39.433594 1.378906 -28.457031 1.378906 -18.53125 C 1.378906 -7.832031 7.058594 0.828125 16.988281 0.828125 Z M 23.164062 -33.640625 C 26.582031 -33.640625 27.132812 -28.347656 27.132812 -25.535156 L 27.132812 -14.78125 C 27.132812 -11.746094 26.695312 -6.066406 22.28125 -6.066406 C 16.160156 -6.066406 15.9375 -13.675781 15.9375 -20.074219 C 15.9375 -26.085938 17.042969 -33.640625 23.164062 -33.640625 Z M 23.164062 -33.640625 "/></g></g></g><g fill="#ffffff" fill-opacity="1"><g transform="translate(148.369406, 200.596369)"><g><path d="M 1.378906 -8.605469 C 1.378906 -3.308594 5.847656 0.828125 11.195312 0.828125 C 19.082031 0.828125 20.683594 -4.300781 23 -4.300781 C 23.824219 -4.300781 24.265625 -3.308594 24.433594 -2.371094 C 24.707031 -0.882812 25.644531 0 27.300781 0 L 40.8125 0 C 39.324219 -1.488281 38.882812 -3.363281 38.882812 -6.507812 L 38.882812 -22.886719 C 38.882812 -30.773438 32.925781 -39.433594 20.242188 -39.433594 C 14.394531 -39.433594 8.605469 -38.605469 4.851562 -35.019531 C 3.417969 -33.699219 3.75 -31.710938 3.75 -29.835938 L 3.75 -26.804688 C 3.75 -25.867188 4.578125 -25.039062 5.460938 -25.039062 C 8.878906 -25.039062 12.464844 -36.289062 19.414062 -36.398438 C 23.496094 -36.457031 24.210938 -33.257812 24.210938 -30.828125 C 24.210938 -29.835938 23.824219 -28.734375 22.226562 -28.402344 C 11.859375 -26.253906 1.378906 -20.351562 1.378906 -8.605469 Z M 22.226562 -24.816406 C 23.714844 -24.816406 24.210938 -23.878906 24.210938 -21.398438 C 24.210938 -17.980469 24.265625 -15.9375 24.265625 -12.464844 C 24.265625 -8.878906 22.777344 -6.175781 19.800781 -6.175781 C 15.71875 -6.175781 14.558594 -9.925781 14.558594 -13.789062 C 14.558594 -20.570312 18.640625 -24.816406 22.226562 -24.816406 Z M 22.226562 -24.816406 "/></g></g></g><g fill="#ffffff" fill-opacity="1"><g transform="translate(189.45741, 200.596369)"><g><path d="M 19.027344 0 C 17.539062 -1.488281 17.097656 -3.363281 17.097656 -6.507812 L 17.097656 -21.507812 C 17.097656 -27.632812 19.414062 -29.339844 21.949219 -29.339844 C 24.378906 -29.339844 25.09375 -26.96875 25.09375 -24.433594 L 25.09375 -6.507812 C 25.09375 -3.363281 24.652344 -1.488281 23.164062 0 L 41.640625 0 C 40.148438 -1.488281 39.710938 -3.363281 39.710938 -6.507812 L 39.710938 -15.9375 L 39.652344 -26.472656 C 39.652344 -32.207031 38.273438 -39.433594 30.222656 -39.433594 C 20.902344 -39.433594 19.746094 -31.765625 17.484375 -31.765625 C 17.261719 -31.765625 17.097656 -31.765625 17.097656 -33.089844 L 17.097656 -34.027344 C 17.097656 -36.839844 16.433594 -38.605469 14.0625 -38.605469 L 0.550781 -38.605469 C 2.039062 -37.117188 2.480469 -35.242188 2.480469 -32.097656 L 2.480469 -6.507812 C 2.480469 -3.363281 2.039062 -1.488281 0.550781 0 Z M 19.027344 0 "/></g></g></g><g fill="#ffffff" fill-opacity="1"><g transform="translate(231.372695, 200.596369)"><g><path d="M 0.277344 -48.476562 C 2.921875 -47.761719 2.648438 -44.894531 2.648438 -44.230469 L 2.648438 -4.523438 C 2.648438 -1.710938 3.308594 0 5.679688 0 L 19.191406 0 C 17.703125 -1.488281 17.261719 -3.363281 17.261719 -6.507812 L 17.261719 -53.828125 C 17.261719 -54.929688 17.207031 -55.980469 15.609375 -55.980469 C 12.355469 -55.980469 2.207031 -51.015625 0.0546875 -49.96875 C -0.0546875 -49.914062 -0.550781 -49.800781 -0.550781 -49.25 C -0.550781 -48.589844 0.109375 -48.535156 0.277344 -48.476562 Z M 0.277344 -48.476562 "/></g></g></g><g fill="#ffffff" fill-opacity="1"><g transform="translate(251.117007, 200.596369)"><g><path d="M 0 -32.703125 C 0 -32.042969 0.660156 -31.988281 0.828125 -31.933594 C 2.921875 -31.214844 2.648438 -28.347656 2.648438 -27.6875 L 2.648438 -6.507812 C 2.648438 -3.363281 2.207031 -1.488281 0.71875 0 L 19.191406 0 C 17.703125 -1.488281 17.261719 -3.363281 17.261719 -6.507812 L 17.261719 -37.28125 C 17.261719 -38.386719 17.207031 -39.433594 15.609375 -39.433594 C 12.355469 -39.433594 2.757812 -34.46875 0.605469 -33.421875 C 0.496094 -33.367188 0 -33.257812 0 -32.703125 Z M 9.816406 -58.40625 C 4.964844 -58.40625 1.765625 -55.207031 1.765625 -50.351562 C 1.765625 -45.5 4.964844 -42.300781 9.816406 -42.300781 C 14.671875 -42.300781 17.867188 -45.5 17.867188 -50.351562 C 17.867188 -55.207031 14.671875 -58.40625 9.816406 -58.40625 Z M 9.816406 -58.40625 "/></g></g></g><g fill="#ffffff" fill-opacity="1"><g transform="translate(107.511186, 219.591938)"><g><path d="M 13.5625 0 L 11.03125 0 L 11.015625 -7.359375 L 8.296875 -1.125 L 6.421875 -1.125 L 3.703125 -7.359375 L 3.703125 0 L 1.125 0 L 1.125 -11.34375 L 4.28125 -11.34375 L 7.359375 -4.59375 L 10.4375 -11.34375 L 13.5625 -11.34375 Z M 13.5625 0 "/></g></g></g><g fill="#ffffff" fill-opacity="1"><g transform="translate(121.574236, 219.591938)"><g><path d="M 8.65625 -2.09375 L 3.703125 -2.09375 L 2.875 0 L -0.078125 0 L 4.796875 -11.328125 L 7.765625 -11.328125 L 12.53125 0 L 9.453125 0 Z M 7.8125 -4.265625 L 6.1875 -8.453125 L 4.546875 -4.265625 Z M 7.8125 -4.265625 "/></g></g></g><g fill="#ffffff" fill-opacity="1"><g transform="translate(133.374194, 219.591938)"><g><path d="M 7.953125 0 L 6.28125 -3.1875 L 4.015625 -3.1875 L 4.015625 0 L 1.125 0 L 1.125 -11.328125 L 6.1875 -11.328125 C 7.6875 -11.328125 8.847656 -10.984375 9.671875 -10.296875 C 10.492188 -9.609375 10.90625 -8.632812 10.90625 -7.375 C 10.90625 -5.625 10.21875 -4.410156 8.84375 -3.734375 L 11.21875 0 Z M 4.015625 -5.453125 L 6.1875 -5.453125 C 6.8125 -5.453125 7.296875 -5.609375 7.640625 -5.921875 C 7.992188 -6.234375 8.171875 -6.6875 8.171875 -7.28125 C 8.171875 -7.863281 7.992188 -8.304688 7.640625 -8.609375 C 7.296875 -8.910156 6.8125 -9.0625 6.1875 -9.0625 L 4.015625 -9.0625 Z M 4.015625 -5.453125 "/></g></g></g><g fill="#ffffff" fill-opacity="1"><g transform="translate(144.430567, 219.591938)"><g><path d="M 8.5 0 L 5.515625 -4.453125 L 4.015625 -2.78125 L 4.015625 0 L 1.125 0 L 1.125 -11.328125 L 4.015625 -11.328125 L 4.015625 -6.421875 L 8.34375 -11.328125 L 11.671875 -11.328125 L 7.46875 -6.625 L 11.953125 0 Z M 8.5 0 "/></g></g></g><g fill="#ffffff" fill-opacity="1"><g transform="translate(155.858735, 219.591938)"><g><path d="M 10 -9.0625 L 4.015625 -9.0625 L 4.015625 -6.8125 L 9.40625 -6.8125 L 9.40625 -4.546875 L 4.015625 -4.546875 L 4.015625 -2.265625 L 10.171875 -2.265625 L 10.171875 0 L 1.125 0 L 1.125 -11.328125 L 10 -11.328125 Z M 10 -9.0625 "/></g></g></g><g fill="#ffffff" fill-opacity="1"><g transform="translate(166.106867, 219.591938)"><g><path d="M 9.78125 -9 L 6.375 -9 L 6.375 0 L 3.5 0 L 3.5 -9 L 0.109375 -9 L 0.109375 -11.34375 L 9.78125 -11.34375 Z M 9.78125 -9 "/></g></g></g><g fill="#ffffff" fill-opacity="1"><g transform="translate(175.336609, 219.591938)"><g><path d="M 4.015625 0 L 1.125 0 L 1.125 -11.328125 L 4.015625 -11.328125 Z M 4.015625 0 "/></g></g></g><g fill="#ffffff" fill-opacity="1"><g transform="translate(179.83003, 219.591938)"><g><path d="M 11.578125 0 L 9.046875 0 L 3.828125 -6.96875 L 3.828125 0 L 1.125 0 L 1.125 -11.328125 L 3.671875 -11.328125 L 8.890625 -4.328125 L 8.890625 -11.328125 L 11.578125 -11.328125 Z M 11.578125 0 "/></g></g></g><g fill="#ffffff" fill-opacity="1"><g transform="translate(191.888629, 219.591938)"><g><path d="M 8.65625 -5.75 L 11.140625 -5.75 L 11.140625 -1.34375 C 10.523438 -0.914062 9.78125 -0.5625 8.90625 -0.28125 C 8.039062 -0.0078125 7.21875 0.125 6.4375 0.125 C 4.707031 0.125 3.265625 -0.425781 2.109375 -1.53125 C 0.960938 -2.632812 0.390625 -4.007812 0.390625 -5.65625 C 0.390625 -7.300781 0.984375 -8.671875 2.171875 -9.765625 C 3.359375 -10.867188 4.84375 -11.421875 6.625 -11.421875 C 7.46875 -11.421875 8.300781 -11.269531 9.125 -10.96875 C 9.957031 -10.664062 10.664062 -10.253906 11.25 -9.734375 L 9.640625 -7.78125 C 9.234375 -8.15625 8.757812 -8.453125 8.21875 -8.671875 C 7.675781 -8.890625 7.140625 -9 6.609375 -9 C 5.679688 -9 4.898438 -8.675781 4.265625 -8.03125 C 3.640625 -7.394531 3.328125 -6.601562 3.328125 -5.65625 C 3.328125 -4.695312 3.644531 -3.894531 4.28125 -3.25 C 4.914062 -2.601562 5.703125 -2.28125 6.640625 -2.28125 C 7.242188 -2.28125 7.914062 -2.460938 8.65625 -2.828125 Z M 8.65625 -5.75 "/></g></g></g><g fill="#ffffff" fill-opacity="1"><g transform="translate(203.252142, 219.591938)"><g/></g></g><g fill="#ffffff" fill-opacity="1"><g transform="translate(206.355382, 219.591938)"><g><path d="M 8.65625 -2.09375 L 3.703125 -2.09375 L 2.875 0 L -0.078125 0 L 4.796875 -11.328125 L 7.765625 -11.328125 L 12.53125 0 L 9.453125 0 Z M 7.8125 -4.265625 L 6.1875 -8.453125 L 4.546875 -4.265625 Z M 7.8125 -4.265625 "/></g></g></g><g fill="#ffffff" fill-opacity="1"><g transform="translate(218.155339, 219.591938)"><g><path d="M 8.65625 -5.75 L 11.140625 -5.75 L 11.140625 -1.34375 C 10.523438 -0.914062 9.78125 -0.5625 8.90625 -0.28125 C 8.039062 -0.0078125 7.21875 0.125 6.4375 0.125 C 4.707031 0.125 3.265625 -0.425781 2.109375 -1.53125 C 0.960938 -2.632812 0.390625 -4.007812 0.390625 -5.65625 C 0.390625 -7.300781 0.984375 -8.671875 2.171875 -9.765625 C 3.359375 -10.867188 4.84375 -11.421875 6.625 -11.421875 C 7.46875 -11.421875 8.300781 -11.269531 9.125 -10.96875 C 9.957031 -10.664062 10.664062 -10.253906 11.25 -9.734375 L 9.640625 -7.78125 C 9.234375 -8.15625 8.757812 -8.453125 8.21875 -8.671875 C 7.675781 -8.890625 7.140625 -9 6.609375 -9 C 5.679688 -9 4.898438 -8.675781 4.265625 -8.03125 C 3.640625 -7.394531 3.328125 -6.601562 3.328125 -5.65625 C 3.328125 -4.695312 3.644531 -3.894531 4.28125 -3.25 C 4.914062 -2.601562 5.703125 -2.28125 6.640625 -2.28125 C 7.242188 -2.28125 7.914062 -2.460938 8.65625 -2.828125 Z M 8.65625 -5.75 "/></g></g></g><g fill="#ffffff" fill-opacity="1"><g transform="translate(229.518847, 219.591938)"><g><path d="M 10 -9.0625 L 4.015625 -9.0625 L 4.015625 -6.8125 L 9.40625 -6.8125 L 9.40625 -4.546875 L 4.015625 -4.546875 L 4.015625 -2.265625 L 10.171875 -2.265625 L 10.171875 0 L 1.125 0 L 1.125 -11.328125 L 10 -11.328125 Z M 10 -9.0625 "/></g></g></g><g fill="#ffffff" fill-opacity="1"><g transform="translate(239.766978, 219.591938)"><g><path d="M 11.578125 0 L 9.046875 0 L 3.828125 -6.96875 L 3.828125 0 L 1.125 0 L 1.125 -11.328125 L 3.671875 -11.328125 L 8.890625 -4.328125 L 8.890625 -11.328125 L 11.578125 -11.328125 Z M 11.578125 0 "/></g></g></g><g fill="#ffffff" fill-opacity="1"><g transform="translate(251.825577, 219.591938)"><g><path d="M 6.4375 -11.421875 C 7.28125 -11.421875 8.109375 -11.242188 8.921875 -10.890625 C 9.734375 -10.546875 10.425781 -10.085938 11 -9.515625 L 9.328125 -7.53125 C 8.960938 -7.988281 8.523438 -8.347656 8.015625 -8.609375 C 7.503906 -8.867188 6.992188 -9 6.484375 -9 C 5.585938 -9 4.835938 -8.679688 4.234375 -8.046875 C 3.628906 -7.421875 3.328125 -6.644531 3.328125 -5.71875 C 3.328125 -4.769531 3.628906 -3.976562 4.234375 -3.34375 C 4.835938 -2.707031 5.585938 -2.390625 6.484375 -2.390625 C 6.960938 -2.390625 7.457031 -2.507812 7.96875 -2.75 C 8.476562 -2.988281 8.929688 -3.3125 9.328125 -3.71875 L 11.015625 -1.9375 C 10.398438 -1.3125 9.671875 -0.8125 8.828125 -0.4375 C 7.992188 -0.0625 7.164062 0.125 6.34375 0.125 C 4.632812 0.125 3.210938 -0.425781 2.078125 -1.53125 C 0.953125 -2.644531 0.390625 -4.03125 0.390625 -5.6875 C 0.390625 -7.320312 0.960938 -8.6875 2.109375 -9.78125 C 3.265625 -10.875 4.707031 -11.421875 6.4375 -11.421875 Z M 6.4375 -11.421875 "/></g></g></g><g fill="#ffffff" fill-opacity="1"><g transform="translate(262.364667, 219.591938)"><g><path d="M 6.96875 -3.65625 L 6.96875 0 L 4.109375 0 L 4.109375 -3.578125 L -0.078125 -11.328125 L 2.796875 -11.328125 L 5.53125 -6.390625 L 8.203125 -11.328125 L 11.078125 -11.328125 Z M 6.96875 -3.65625 "/></g></g></g></svg>